/* XPM */
static char *escape_closed[] = {
/* columns rows colors chars-per-pixel */
"32 32 225 2 ",
"   c None",
".  c #050709",
"X  c #1B150A",
"o  c #1B1409",
"O  c #1E1912",
"+  c #231A0E",
"@  c #2C1B0C",
"#  c #271509",
"$  c #341C0D",
"%  c #3A1D0E",
"&  c #30160E",
"*  c #2B1E14",
"=  c #351C13",
"-  c #2B230D",
";  c #3E210E",
":  c #35270C",
">  c #3D310D",
",  c #262417",
"<  c #2B2315",
"1  c #2C2419",
"2  c #28251B",
"3  c #34251A",
"4  c #3A2B18",
"5  c #342A22",
"6  c #3B3624",
"7  c #2F2B23",
"8  c #49230F",
"9  c #452F08",
"0  c #44200F",
"q  c #52260E",
"w  c #46320A",
"e  c #4A340A",
"r  c #452711",
"t  c #422C13",
"y  c #4D2C11",
"u  c #482A17",
"i  c #552510",
"p  c #522B12",
"a  c #5C2E12",
"s  c #502F18",
"d  c #4E321C",
"f  c #473718",
"g  c #58361F",
"h  c #573818",
"j  c #6D310F",
"k  c #663E0C",
"l  c #662D14",
"z  c #6E3313",
"x  c #6B3C1D",
"c  c #643518",
"v  c #743413",
"b  c #7E3715",
"n  c #743B14",
"m  c #7A3B15",
"M  c #793F19",
"N  c #753E1C",
"B  c #72330E",
"V  c #442921",
"C  c #453C28",
"Z  c #493923",
"A  c #5D3921",
"S  c #583725",
"D  c #532F27",
"F  c #6C3C21",
"G  c #5C441A",
"H  c #77560D",
"J  c #6B4D1A",
"K  c #674718",
"L  c #7A4115",
"P  c #7C441A",
"I  c #75471A",
"U  c #67541E",
"Y  c #75581A",
"T  c #724D0F",
"R  c #4B4325",
"E  c #5C4B23",
"W  c #564B2C",
"Q  c #554624",
"!  c #5E512D",
"~  c #634E20",
"^  c #6D412D",
"/  c #6B4C24",
"(  c #7A4221",
")  c #71412C",
"_  c #7D4E2C",
"`  c #64532B",
"'  c #6D5C2D",
"]  c #6B5927",
"[  c #6D4330",
"{  c #654030",
"}  c #7B4D32",
"|  c #7D5231",
" . c #635330",
".. c #74622B",
"X. c #796428",
"o. c #6C6134",
"O. c #796836",
"+. c #7D7D53",
"@. c #777247",
"#. c #833C16",
"$. c #843D1F",
"%. c #873F31",
"&. c #823A22",
"*. c #824517",
"=. c #834917",
"-. c #82441A",
";. c #8B461A",
":. c #854B1C",
">. c #8C4D1D",
",. c #8C4A17",
"<. c #924C1D",
"1. c #8C521C",
"2. c #8B5B13",
"3. c #94541A",
"4. c #8A6918",
"5. c #9C6B1A",
"6. c #9A731B",
"7. c #92610E",
"8. c #A26C15",
"9. c #A4741B",
"0. c #A77D1E",
"q. c #A97615",
"w. c #AB7710",
"e. c #8D4522",
"r. c #854B21",
"t. c #8A4D21",
"y. c #8C4B2C",
"u. c #8E5521",
"i. c #8F5827",
"p. c #8C502E",
"a. c #935A27",
"s. c #9B5F24",
"d. c #945E2C",
"f. c #9B5D2A",
"g. c #965324",
"h. c #964331",
"j. c #815432",
"k. c #985734",
"l. c #874032",
"z. c #A35D2F",
"x. c #9B622C",
"c. c #9B612A",
"v. c #9B7426",
"b. c #976130",
"n. c #9A6431",
"m. c #99613A",
"M. c #85723D",
"N. c #8E7939",
"B. c #8B7539",
"V. c #987D3A",
"C. c #866C2A",
"Z. c #A2642C",
"A. c #A36328",
"S. c #A77828",
"D. c #A16330",
"F. c #AD6E3A",
"G. c #AB6238",
"H. c #B56A3A",
"J. c #AD7138",
"K. c #C67D3F",
"L. c #D27C3F",
"P. c #887642",
"I. c #887946",
"U. c #927E45",
"Y. c #AA6E40",
"T. c #A46C49",
"R. c #B77645",
"E. c #B46F47",
"W. c #CA7946",
"Q. c #AE821F",
"!. c #B6881E",
"~. c #B78A1E",
"^. c #B48927",
"/. c #A68432",
"(. c #A98A3A",
"). c #B49239",
"_. c #AC8936",
"`. c #9B8545",
"'. c #95824C",
"]. c #9A864C",
"[. c #9E894A",
"{. c #9C8644",
"}. c #918B57",
"|. c #A38C43",
" X c #AE9344",
".X c #B49948",
"XX c #B98B51",
"oX c #BCA34A",
"OX c #B8A45A",
"+X c #999A65",
"@X c #BDAD66",
"#X c #C6844D",
"$X c #CE8749",
"%X c #CF8849",
"&X c #C48243",
"*X c #D38A4B",
"=X c #D88A49",
"-X c #CC8C51",
";X c #CB8D58",
":X c #D08C52",
">X c #CF9159",
",X c #CF9056",
"<X c #D49359",
"1X c #E7955F",
"2X c #C1AE56",
"3X c #D0BC5A",
"4X c #D79861",
"5X c #D89A65",
"6X c #D9A16F",
"7X c #C4B66B",
"8X c #D2BC62",
"9X c #D9A170",
"0X c #C3BB76",
"qX c #E5AA76",
"wX c #EBAD74",
"eX c #D9C458",
"rX c #CBC57A",
"tX c #CFC86F",
"yX c #CCCA88",
"uX c #D5D788",
"iX c #D5DA98",
"pX c #CFD293",
"aX c #DCE692",
"sX c #DAE5A3",
"dX c #DEF0A1",
/* pixels */
"  ^ [ K 3.3.Z F ^ ) ) ) ) F F ) ) F [ ) ^ ) F ^ { I 2.3.d ) )   ",
"k.*XW.O.eXeXS =X%X%X$X$X%X*X%X%X*X%X%X:X*X*X*X*XH.V.3X3XD =X=Xy.",
"T.9X1X+.iXaXW qX6X6X6X6X6X6X6X6X5X5X4X4X<X5X<X5XW.+XiXaXD qX6XG.",
"T.wX1X+.sXsXW L.K.K.K.W.K.K.K.K.,X4X:X:X:X:X<X;XE.+XsXdXg wXqXF.",
"[ m.k.+.iXiXQ *X#X#X-X-X-X-X-X-X;X:X<X<X>X>X<X>XR.+XpXaXV <X>Xp.",
"| #XR.@.yXpXZ *X#X#XG.h.%.%.%.%.%.%.l.l.%.%.l.h.k.}.yXuXV :X#Xy.",
"} Y.G.@.yXrXZ H.Y.Y.Y.F.F.F.F.F.F.F.F.F.F.F.F.F.k.U.yXtX5 R.Y.( ",
"A | | O.0XrXZ j.| | | j.j.| j.j.} [ [ [ [ [ [ ^ S U.0X8X5 j.j.S ",
"| XXH.o.7X7X4 W.R.c.;.e.e.e.e.e.e.$.$.$.&.&.3.J.k.I.7X7X= &XR.( ",
"x t.x ' OX2X4 M I ( ( ( ( M t.f.Z.D.D.Z.D.u.r.r.F @.OX2X* g.d.c ",
"t A g ` OX2X3 c A A A A A A A g A g g g S g A A D O.OX.X* A A 3 ",
"c Z.t.U .X.X* A.s.s.s.s.s.s.s.s.s.s.s.s.s.f.x.Z.-... X).& Z.Z.a ",
"h b.:.G ).).< *.m L L L M n z z z z z v m L >.1.n ] )._.* 3.d.q ",
"y P n G _._.+ t.t.t.r.t.:.*.m m m m m m n v v n a ] /.S.+ #.-.8 ",
"# & ; h S.Q.+ y y y y p y y y y y y y y y y y y r J S.9.# y y $ ",
"0 3.-.h 6.9.O <.t.t.>.t.>.>.;.#.b b b b b b b b c K 6.5.@ J.Z.8 ",
"- $ @ k 6.8.% $ $ $ $ $ $ $ $ % r % % 0 % 0 % % % T 6.8.# % % $ ",
"H ^.!.Q.0.0.!.^.!.!.!.^.!.!.!.!.!.!.!.!.!.!.~.~.~.Q.0.0.!.!.~.k ",
"@ e w w 9 e w w w w e 9 w w w e e e w w 9 e e w w w e w 9 9 9 - ",
"R R E ~ J < v z z v % K J K t > t t t h J K $ n v z 7 ' o...X.f ",
"..M.[.|./., A.f.x.n.i 4.S.f `.'.'.U.U.Q K 6.% s.a.<.C N.U.].|.Y ",
"X.M.'.]./., B j j j $ C.H o.(.{.|.|.{. X< 9.: a.>.#.C B.U.].|.Y ",
"1 M.M.B.v., c.c.x.x.i 4.4.Q I.M...M.I.M.$ w.% c.z a C B.U.V./.3 ",
"r y s s y h L j j B @ 6.4.! ].E . + `.`.@ Q.# B =.>.3 3 * 1 3 = ",
"h s.c.f.f.x.x.x.b.n.p H w.! [.` . o |.{.@ 7.@ 1.=.=.,.,.,.1.c.0 ",
"8 8 @ = r 8 i n b.b.a.# o ] {./.. ..{.(.o # a.b.b.b.n.n.n.n.c.$ ",
"2 8 v N L :.n.a.L n z m l U  X).. .. X/.o *.z v z v a a a a q 2 ",
"' W ! ` ` 7 1.:.1.>.1.>.,.# > : w > > - & m v v n v 6  .! ` ' / ",
"..M.'.{./., b m m m n m m m n L P P P L 3.u.u.u.u.,.C N.'.`.|.Y ",
"..M.'.`./., ,.:.;.>.i.i.i.i.a.b.n.a.:.P N L M M M v C N.'.`.[.Y ",
"` P.'.[._.< p 8 u l -.P -.-.:.=.L L L L L L L L L m C N.'.[.(.R ",
"  R E ~ J 1 & * + + + + + @ $ $ $ % % $ $ ; % % % & 6 Q E G G   "
};
