/* XPM */
static char *space[] = {
/* columns rows colors chars-per-pixel */
"32 32 4 1 ",
"  c #4B720E",
". c #5A8212",
"X c #62921D",
"o c #7AAA22",
/* pixels */
"...XXXoXXXXXooXXXX  XXXo X XX..X",
".XXo  XX   ooXX.X  XXXoooX XX.XX",
"XX   o   XXXXX.XX XXX..XXXX o.XX",
"X  XXo XXX XXX.. XX...XXXXo o.XX",
"  .   XXX Xo..oXXXX.X XXXoXXXXX ",
"X   oo.. XXo.oXXX..  ooXXXXXoo .",
"  .o..X XXXo.XX..XXoooX...XXX oo",
" X...oX.XXXoXX.  ..oXXoooXXXoXXo",
"XX  .o XooX.X.. .ooXo.ooXX.ooXXX",
"X  .oo XoX.... .ooXo.XoXX.ooXXXX",
"  .  XXooX   X .oXXo...X.XoXXXX ",
"... XX.o.  .XX XXXXo..X....XXoo ",
"...XX..oX .XX. XX..XX...X.oXXo X",
"..X...  X.XX.o XX.  .XX.XXXX   X",
".X.X. oX .oo. XX.oo.XXXXXoXX  XX",
"  .. .. XoX.  Xoo X.X   ooX.  XX",
" X. .. XooX. oo.X.....X  ..X  XX",
" .o X.XXoo.Xoo.X..XX X  o.XXX Xo",
"   ..XXoXX. o.... XX XXX XXXX oo",
" . X.XXoXX. X.. . X XXX oXX   oX",
"X .X. oXX.X ..  .XX X X XX  XXXX",
" XXX. oXX. .ooXX.X X  X  o XXX..",
"XXo  oXXo..ooXXX.  X XX ooX X...",
"XXo  oXo. ooXXX  X   XX oXXX.X.X",
"X.. Xooo.oXXXooooX  XXXo....XXXX",
"..o X.oX.X...X oX X XX..X. XooXX",
".o oXo...X.oX o.X XXX.oo.  ooXX.",
"Xo oX.o...XoXo.X. X..oo. XXoXX..",
"XoXX.. X.XXooXX. ..  o.  XooX .X",
"XoX.  XX.Xo..X.... XX. X XoX  XX",
"XXX .XX..o.XXX. XXXXX XX XXX XX.",
"XX XXXX.oXXXXX.XXXXXXXXXXXX..XX."
};
