/* XPM */
static char *escape_opened[] = {
/* columns rows colors chars-per-pixel */
"32 32 227 2 ",
"   c None",
".  c #040302",
"X  c #0B0A06",
"o  c #0C0B09",
"O  c #07080A",
"+  c #140E09",
"@  c #1B0E0B",
"#  c #1B140B",
"$  c #171108",
"%  c #1E1912",
"&  c #23150B",
"*  c #241A0E",
"=  c #2C1B0C",
"-  c #261507",
";  c #341C0E",
":  c #391E0E",
">  c #30160E",
",  c #291E12",
"<  c #371D12",
"1  c #2F280F",
"2  c #3C270E",
"3  c #3D310D",
"4  c #262417",
"5  c #2B2215",
"6  c #2D241A",
"7  c #29251C",
"8  c #332213",
"9  c #3A2514",
"0  c #34251B",
"q  c #382919",
"w  c #392A22",
"e  c #3B3624",
"r  c #2F2B23",
"t  c #4B1E12",
"y  c #4A230F",
"u  c #46250D",
"i  c #54270F",
"p  c #4E320D",
"a  c #442613",
"s  c #422915",
"d  c #4B2B14",
"f  c #422D1A",
"g  c #4A2817",
"h  c #552411",
"j  c #552A13",
"k  c #5D2E12",
"l  c #512C19",
"z  c #5F2A19",
"x  c #49301A",
"c  c #463517",
"v  c #5E3315",
"b  c #50341C",
"n  c #543A18",
"m  c #5D3A0B",
"M  c #6D310F",
"N  c #632D13",
"B  c #64291A",
"V  c #623416",
"C  c #6B3414",
"Z  c #6B3D17",
"A  c #633519",
"S  c #693A1B",
"D  c #69371E",
"F  c #743613",
"G  c #793615",
"H  c #753B14",
"J  c #793B15",
"K  c #713E1B",
"L  c #793E19",
"P  c #70331B",
"I  c #72330E",
"U  c #512E21",
"Y  c #443C25",
"T  c #443C29",
"R  c #4D3323",
"E  c #523423",
"W  c #5C3925",
"Q  c #4C2B21",
"!  c #6A3C2A",
"~  c #793720",
"^  c #7D3C21",
"/  c #783E26",
"(  c #5A451B",
")  c #61420F",
"_  c #674917",
"`  c #7A4215",
"'  c #74421C",
"]  c #7C441B",
"[  c #784D1F",
"{  c #72551B",
"}  c #79521A",
"|  c #795A19",
" . c #6E5613",
".. c #5E4226",
"X. c #5C4B22",
"o. c #554A2D",
"O. c #514425",
"+. c #5E512D",
"@. c #4C4A28",
"#. c #634E21",
"$. c #66482E",
"%. c #694729",
"&. c #7F4028",
"*. c #7D4D2B",
"=. c #754728",
"-. c #63532B",
";. c #6C5B2C",
":. c #6B5725",
">. c #635330",
",. c #7B4531",
"<. c #74622B",
"1. c #796428",
"2. c #796835",
"3. c #77774A",
"4. c #843C16",
"5. c #83580F",
"6. c #925B0F",
"7. c #834917",
"8. c #8C4C17",
"9. c #824319",
"0. c #8B4718",
"q. c #854B1C",
"w. c #8C4D1B",
"e. c #874416",
"r. c #8C521C",
"t. c #855E13",
"y. c #91511C",
"u. c #985515",
"i. c #9A4C1C",
"p. c #A55D1F",
"a. c #92610E",
"s. c #8A6918",
"d. c #9D6C15",
"f. c #9B6212",
"g. c #937417",
"h. c #A36C13",
"j. c #A06D1F",
"k. c #A77418",
"l. c #AB7710",
"z. c #824B29",
"x. c #874825",
"c. c #8E5423",
"v. c #8F5827",
"b. c #945A26",
"n. c #9C5E25",
"m. c #935C2C",
"M. c #9C5D2A",
"N. c #965429",
"B. c #895333",
"V. c #965D36",
"C. c #AE5F21",
"Z. c #886823",
"A. c #996C22",
"S. c #9A622C",
"D. c #946626",
"F. c #9C7323",
"G. c #98742B",
"H. c #816B33",
"J. c #976130",
"K. c #9A6233",
"L. c #916F33",
"P. c #85723D",
"I. c #8E7939",
"U. c #8B7438",
"Y. c #987B36",
"T. c #A86322",
"R. c #A76629",
"E. c #BD662D",
"W. c #B46A28",
"Q. c #B3712E",
"!. c #BD742A",
"~. c #A66036",
"^. c #BA6F38",
"/. c #A67D3B",
"(. c #A27631",
"). c #B37235",
"_. c #BC7232",
"`. c #BD743D",
"'. c #B6763A",
"]. c #A37B24",
"[. c #C3722C",
"{. c #C67B36",
"}. c #C56A30",
"|. c #8D7C44",
" X c #877644",
".X c #927C40",
"XX c #B27046",
"oX c #C37642",
"OX c #C57C4B",
"+X c #C67B47",
"@X c #CC7644",
"#X c #A8822E",
"$X c #A38334",
"%X c #A98C3A",
"&X c #B08B30",
"*X c #B5933A",
"=X c #CF833C",
"-X c #9B8545",
";X c #95824C",
":X c #9B854A",
">X c #9D8746",
",X c #918E59",
"<X c #A38C43",
"1X c #AE9344",
"2X c #AF9649",
"3X c #B59B47",
"4X c #BBAA57",
"5X c #949562",
"6X c #BFB46D",
"7X c #CF925C",
"8X c #D2915A",
"9X c #D99558",
"0X c #D2844C",
"qX c #E59156",
"wX c #D69964",
"eX c #DA9C68",
"rX c #E49F61",
"tX c #C9BE67",
"yX c #C3B970",
"uX c #E8A86E",
"iX c #D1D278",
"pX c #C9C683",
"aX c #D0CF81",
"sX c #D2D88B",
"dX c #D1D695",
"fX c #DAE687",
"gX c #D8E394",
/* pixels */
"B.V.B.! A.R.b K.V.V.V.V.V.V.V.V.V.V.V.V.V.V.V.V.B.[ d.D.E K.K.,.",
"XXeXqX3.sXsXo.qX9X9X9X9X9X9X9X9XwXwXwXwXwXwXwXwXOX,XsXfXU uXeX~.",
"B.8X9X3.dXgX@.{.`.`.^.^.^.^.^.^.+X7X8X8X8X8X8X7XXX5XdXgXU rXwXB.",
"*.OXoX3.pXaXO.@X@XOXOXoXoXoXoXoXoX{.XX{.oXXX{.oX~.,XpXiXf 0X@Xx.",
"W *.%.2.yXiXw *.=.=.! ! ! ! ! ! / / / z.x.z.z.B.=. XtXtX0 B.,.E ",
"D m.x.;.4X4Xq N.N.x.~ ~ ~ ~ ~ L ~ x.9.^ 4.x.c.c./ 2.4X4X, N.N.A ",
"l ' S #.3X3X0 K K K K K K K ' Z K K K K / K ' ' v <.2X*X= =.' a ",
"v y.4.( %X&X, 4.G G G G G J F F F F F F G P F L V :.%X#X* 4.w.h ",
"& ; d n ].k.* S C C C C C V V N N N N N N N N N g _ F.R.4 C V 2 ",
"= C v p d.h.& A v A A n V l a a s s s a s s s s s ) d.f.$ Z V = ",
"m 5.5.l.k.h.h.6.6.6.6.6.6.6.6.6.6.6.6.6.6.6.6.6.6.h.d.d.f.5.5.p ",
"d d a . . X X X + + + + + + + + + + + + + + + + + + + + X i y : ",
"b D }.o = = 8 9 q d x x x x x x x x x x x x x x x x x b # =X!.L ",
"] !.E.+ = 8 9 s x x b b b x b x x E b b b x b b b b b b # {.C.P ",
"m.Q.E.$ 9 f x b ..$.$.%.%.......$.......$.$.$.$.$.$.$.$.% [.i.l ",
"m.Q.E.o $ - 5 8 8 9 q t Z Z Z Z C Z Z Z Z h f f f f q f @ {.W.B ",
"b.Q.).x.z.z.z.z.*.z.W D.$X$X$X$X$X$X$X$X$XG.U x.z.z.z.*.N.).Q.z ",
"b [._.}.!._.).).).'.F L..X$X/./.$X.X$XXX/.(.j j.p.C.T.T.Q.).E.0 ",
"T 6 q q q g C.T.T.R.N L././././././.$X/./.(.j W.R.p.N N N N a r ",
"<.H.U.I.G.r p.n.n.R.N Z.(.j.} } } } } D.(.A.u T.n.i.T 2.2.2.U.[ ",
"<. X;X-X$X5 S.b.b.J.h Z.A.c I.;X|.|.|.O.Z A.2 b.v.8.T I.;X-X<X{ ",
"<. X;X-X$X4 I I M I > s.| <.<X<X<X<X<X1X1 k.; b.w.4.T I.;X-X<X{ ",
"6 H.P.U.G.4 R.S.D.K.h s.s.@. X X2.P. XP.= l.2 n.C k T H..XY.#X1 ",
"d x x j d j J M C F > g.s.+.:XX.O % -X.X= #X- I 7.y.0 0 6 6 0 8 ",
"v S.S.M.C.M.M.K.J.K.j | h.#.>X-.. + <X-X= a.= w.7.7.w.8.8.r.T.: ",
"a y = ; 9 s j H J.J.b.- # :.-X$XO <.>X%X$ - b.J.J.V.J.J.K.J.S.; ",
"4 y H H ` q.S.b.] H C J N #.*X*XO 1.1X#X# e.C F C F k k k k i 7 ",
";.o.+.-.>.r r.q.r.w.w.r.8.- 3 3 c 3 3 1 > F F F F G e -.+.-.;.%.",
"<.P.;X>X$X4 4.F L J J G H J H ` ] ] ] ` r.c.y.c.c.0.T I.;X-X<X{ ",
"<.P.;X:X$X4 8.0.0.r.v.v.b.v.m.M.J.b.q.` L ` ] ` L F Y I.;X-X>X{ ",
"-.I.:X:X&X4 j d a N 9.4.] e.7.7.` ` ` ` ` ` ` ` ` F T I.;X:X%X( ",
"  Y X.#._ 6 > * * * * % * = ; ; ; : : 8 : : : : : ; e X.X._ O.  "
};
