/* XPM */
static char *player[] = {
/* columns rows colors chars-per-pixel */
"32 32 28 1 ",
"  c None",
". c black",
"X c #000100",
"o c #030000",
"O c #000201",
"+ c #000002",
"@ c #000102",
"# c #030002",
"$ c #010302",
"% c #000004",
"& c #000104",
"* c #000005",
"= c #331300",
"- c gray13",
"; c #630000",
": c #7F0000",
"> c #563120",
", c #5B7F00",
"< c #7A462E",
"1 c #AD4500",
"2 c #D3AC00",
"3 c #FFD800",
"4 c #F7946A",
"5 c #FF996D",
"6 c #808080",
"7 c #EAEAEA",
"8 c gray95",
"9 c white",
/* pixels */
"                                ",
"                                ",
"                                ",
"                                ",
"                                ",
"                                ",
"                                ",
"                                ",
"                                ",
"            ........            ",
"           ...9999...           ",
"          ....9-9-....          ",
"         .....8998.....         ",
"        .......88.......        ",
"       .......8..8.......       ",
"      ....................      ",
"      ....................      ",
"         .4444.444.444.         ",
"         .4554.554.555.         ",
"         .455665556555....      ",
"         .111111111111..,.      ",
"         .111111..111.,,9,3     ",
"          .1111111111,,..,      ",
"          ..11111111.33...      ",
"         .;#;1111111&;..,,.     ",
"         .:.;;11111;$:# ..      ",
"         .4.::;17:;;&4#         ",
"         .4.:::77:::.4.         ",
"          ..::>22>::..          ",
"            = &&<>::.           ",
"            =   &>::&           ",
"            =    .#..           "
};
